<svg width="200" height="40" viewBox="0 0 200 40" fill="none" xmlns="http://www.w3.org/2000/svg">
    <path d="M15 8C12.2386 8 10 10.2386 10 13C10 15.7614 12.2386 18 15 18C17.7614 18 20 15.7614 20 13C20 10.2386 17.7614 8 15 8Z" fill="#4CAF50"/>
    <path d="M30 8C27.2386 8 25 10.2386 25 13C25 15.7614 27.2386 18 30 18C32.7614 18 35 15.7614 35 13C35 10.2386 32.7614 8 30 8Z" fill="#4CAF50"/>
    <path d="M15 23C12.2386 23 10 25.2386 10 28C10 30.7614 12.2386 33 15 33C17.7614 33 20 30.7614 20 28C20 25.2386 17.7614 23 15 23Z" fill="#4CAF50"/>
    <path d="M30 23C27.2386 23 25 25.2386 25 28C25 30.7614 27.2386 33 30 33C32.7614 33 35 30.7614 35 28C35 25.2386 32.7614 23 30 23Z" fill="#4CAF50"/>
    <path d="M44 20C44 12.268 37.732 6 30 6V20H44Z" fill="#4CAF50"/>
    <text x="50" y="25" font-family="Arial, sans-serif" font-weight="bold" font-size="18" fill="#333333">PetLuxe</text>
</svg>